<svg id="pubg-krafton" xmlns="http://www.w3.org/2000/svg" viewBox="0 0 396.000000 328.000000"><g fill="currentColor"><path d="M9.5 1.2c-.3.7-.6 20.6-.7 44.3l-.3 43-3.3 1.4L2 91.4v28.2l3.2 1.5 3.3 1.4.5 37.6c.5 35.3.6 37.8 2.4 39.8 1.7 1.9 3 2.1 13.6 2.1 10.1 0 12.1-.3 14.1-1.9l2.4-1.9.5-38.4.5-38.3 18-.5c20.2-.6 23.1-1.4 27-8 1.9-3.4 2-5.3 2.3-51 .2-26.1 0-49.4-.3-51.7-.4-2.9-1.6-5.3-3.6-7.3l-3.1-3H46.4C18.1 0 9.8.3 9.5 1.2zm46 58.3v30l-5.9.3c-4.1.2-6.2-.1-6.7-1-1-1.6-1.2-58.2-.2-59.2.4-.4 3.4-.6 6.8-.4l6 .3v30zM108.7.6c-.4.4-.7 42.2-.7 92.8 0 103.2-.4 96.5 7.3 103.3 5.8 5.1 8.5 5.5 37.9 5.1l26.6-.3 4.4-3c2.3-1.7 5.4-5.1 6.8-7.5l2.5-4.5.3-91.9c.2-68 0-92.2-.9-93.2-.9-1.1-4.6-1.4-16-1.4-13.6 0-14.9.2-15.9 1.9-.7 1.3-1 29.8-1 85.3 0 63.5-.3 83.7-1.2 84.6-1.7 1.7-15.2 1.6-16.7-.1-.8-1-1.2-25.6-1.3-86.3L140.5.5 124.9.2c-8.5-.1-15.8.1-16.2.4zM212.5 1.2c-.3.7-.6 18.1-.7 38.7l-.3 37.4-3 1.7-3 1.7-.3 13.1c-.2 12-.1 13.3 1.5 13.8 5 1.6 4.8-1 5.3 48l.5 45.9 30 .3c32.8.3 35.4 0 41.1-5 7.5-6.6 7.4-6 7.4-49.7 0-24.9-.4-40-1.1-41.7-.5-1.6-3-5.1-5.4-7.9-4.1-4.9-4.2-5.1-2.2-6.1 1.1-.5 3-2.2 4.1-3.7 2-2.7 2.1-4.2 2.4-39.4.2-20 .1-38.1-.3-40-.3-1.9-1.7-4.6-3-5.9L283.1 0H248c-27.1 0-35.2.3-35.5 1.2zm44.6 27.9c1.4 2.2 1.1 48.3-.3 49.7-1.9 1.9-12.4 1.6-13.2-.4-.3-.9-.6-12.1-.6-24.9 0-27.2 0-27 8.3-26.2 2.7.2 5.3 1.1 5.8 1.8zm-.3 83.1c1.7 1.7 1.7 57.9 0 59.6-.7.7-3.5 1.2-6.3 1.2s-5.6-.5-6.3-1.2c-1.7-1.7-1.7-57.9 0-59.6.7-.7 3.5-1.2 6.3-1.2s5.6.5 6.3 1.2zM315 2.2c-1.8 1.3-4.3 3.6-5.4 5.1-2.1 2.8-2.1 3.4-2.4 90.5-.1 48.2 0 89.2.3 91 .7 4 5.9 10.1 10.2 11.8 2.4 1.1 9.6 1.4 28.8 1.4 28.1 0 28.7-.1 35.2-6.3 6.3-5.9 6.3-6.7 6.1-63.7l-.3-51.5h-38l-.3 11.5c-.3 14.2 0 15.8 3.6 16.2l2.7.3v64h-15v-144l9.4-.3c6.9-.2 9.7.1 10.3 1 .4.7.8 5.5.8 10.6v9.3l13.3-.3 13.2-.3.3-20c.2-13.5-.1-20.9-.9-22.8-2.4-5.7-2.5-5.7-37-5.7-31.1 0-31.7 0-34.9 2.2zM5 222c0 5.7-.1 6-2.5 6-2.2 0-2.5.4-2.5 4s.3 4 2.5 4H5v30H2.5c-2.2 0-2.5.4-2.5 4s.3 4 2.5 4c2.4 0 2.5.3 2.5 6v6h386v-6c0-5.7.1-6 2.5-6 2.3 0 2.5-.4 2.5-4s-.2-4-2.5-4H391v-30h2.5c2.3 0 2.5-.4 2.5-4s-.2-4-2.5-4c-2.4 0-2.5-.3-2.5-6v-6H5v6zm378 29v27H13v-54h370v27z"></path><path d="M33.2 239.3c-1.9 2.1-2.2 3.4-2.2 11.9 0 9.2.1 9.7 2.6 11.7 3.3 2.6 9.4 2.8 12.3.3 1.2-.9 2.4-3.4 2.8-5.5l.6-3.7h-3.7c-3.2 0-3.6.3-3.6 2.5 0 1.8-.5 2.5-2 2.5-1.8 0-2-.7-2-8s.2-8 2-8c1.5 0 2 .7 2 2.5 0 2.2.4 2.5 3.6 2.5h3.7l-.6-3.8c-.8-4.8-3.8-7.2-9.1-7.2-3.1 0-4.8.6-6.4 2.3zM66.2 239c-2 1.9-2.2 3.1-2.2 12 0 9.5.1 9.9 2.6 11.9 3.8 3 9.8 2.8 12.9-.4 2.3-2.2 2.5-3.2 2.5-11.5s-.2-9.3-2.5-11.5c-3.2-3.3-10.1-3.5-13.3-.5zm8.3 12c0 6.3-.3 7.5-1.7 7.8-1.6.3-1.8-.6-1.8-7.8s.2-8.1 1.8-7.8c1.4.3 1.7 1.5 1.7 7.8zM97 250.4V264h3.5c3.4 0 3.5-.1 3.6-4.3v-4.2l1.7 4.2c1.5 4 1.9 4.3 5.4 4.3h3.8l-2.1-5.1c-1.8-4.7-1.8-5.3-.4-6.9 1.9-2.1 2-9.9.1-12.5-1.1-1.5-3-2-8.5-2.3l-7.1-.4v13.6zm10.4-5.9c.8 2.1-.3 4.5-2 4.5-.9 0-1.4-1.1-1.4-3 0-3.2 2.3-4.2 3.4-1.5zM129 250.4V264h3.5c3.5 0 3.5 0 3.5-4.5 0-4.4.1-4.5 3.3-4.5 1.7 0 3.7-.4 4.3-.8 3.6-2.4 4.5-10.6 1.5-14.3-1.6-1.9-3-2.4-9-2.7l-7.1-.4v13.6zm11-4.4c0 2.3-.4 3-2 3s-2-.7-2-3 .4-3 2-3 2 .7 2 3zM164.7 238.2c-2.4 1.9-3.7 6.3-3.7 12.8 0 6.6 1.2 10.7 3.8 12.6 2.6 2 9.6 1.7 12.3-.5 2.2-1.8 2.4-2.6 2.4-12.1s-.2-10.3-2.4-12.1c-2.7-2.2-9.8-2.6-12.4-.7zm8.1 12.6c.2 6 0 7.3-1.4 7.9-2.3.9-3.4-1.4-3.4-7.4 0-6.3.8-8.5 2.9-8.1 1.3.3 1.7 1.8 1.9 7.6zM195 250.4V264h7l.1-5.3v-5.2l2 5.2c1.9 5 2.3 5.3 5.5 5.3 3.9 0 3.9 0 1.8-5.6-1.5-3.9-1.5-4.4 0-6.5 2.2-3.2 2-9.1-.3-12-1.6-1.9-3-2.4-9-2.7l-7.1-.4v13.6zm11-4.4c0 2.3-.4 3-2 3s-2-.7-2-3 .4-3 2-3 2 .7 2 3zM230.6 244.7c-.9 4.3-2.3 10.4-3.1 13.5l-1.3 5.8h3.3c2.7 0 3.4-.5 3.9-2.5.4-1.6 1.3-2.5 2.5-2.5s2.1.9 2.5 2.5c.5 2.1 1.2 2.5 4.2 2.5 2.9 0 3.4-.3 3-1.8-.2-.9-1.7-7-3.2-13.5l-2.7-11.7h-7.4l-1.7 7.7zm6.4 8.4c0 .5-.4.9-1 .9-.5 0-1-.7-1-1.6 0-.8.5-1.2 1-.9.6.3 1 1 1 1.6zM257 240c0 2.7.3 3 3 3h3v21h7v-21h2.5c2.1 0 2.5-.5 2.5-3v-3h-18v3zM290 250.5V264h7v-27h-7v13.5zM314.9 238.9c-2 1.6-2.4 3-2.7 9.5-.7 12.8 1.5 16.6 9.3 16.6 7.8 0 10-3.8 9.3-16.6-.4-9.1-2.3-11.4-9.3-11.4-2.7 0-5.1.7-6.6 1.9zm8.6 12.1c0 6.8-.2 7.5-2 7.5s-2-.8-2.3-6.4c-.4-7.5.2-9.4 2.5-8.9 1.5.3 1.8 1.5 1.8 7.8zM346 250.5V264h7v-10.5l3.1 5.2c2.6 4.5 3.5 5.3 6 5.3h2.9v-27h-7v5.7l-.1 5.8-3-5.8c-2.6-5-3.3-5.7-5.9-5.7h-3v13.5zM12 308v11h2.9c2.6 0 3-.4 3.3-3.3l.3-3.2 1.8 3.2c1.4 2.6 2.4 3.3 4.8 3.3 2.1 0 2.9-.4 2.6-1.2-.3-.7-1.5-3.7-2.7-6.5l-2.3-5.3 2.7-4c1.4-2.2 2.6-4.2 2.6-4.5 0-.3-1.3-.5-2.9-.5-2 0-3.6.8-5 2.7l-2 2.8-.1-2.8c0-2.3-.4-2.7-3-2.7h-3v11zM35 308v11h2.5c2.2 0 2.5-.4 2.5-3.5 0-1.9.4-3.5.8-3.5s1.4 1.6 2.1 3.5c1 2.9 1.7 3.5 4.2 3.5 3.4 0 3.3.2 1.5-4.1-1.2-2.9-1.2-3.7 0-5.4 1.9-2.5 1.8-7.5-.2-10.3-1.3-1.9-2.4-2.2-7.5-2.2H35v11zm8.8-4.8c.8.8.9 1.5.1 2.5-1.8 2.1-3.9 1.5-3.9-1.2s1.8-3.3 3.8-1.3zM59.5 306.7c-1.5 5.4-3 10.4-3.2 11.1-.4.8.5 1.2 2.6 1.2s3.1-.5 3.1-1.5 1-1.5 3-1.5 3 .5 3 1.5 1 1.5 3 1.5c3.5 0 3.5.2 1.1-7.5-1-3.3-2.4-7.9-3-10.3-1-3.7-1.5-4.2-4-4.2-2.7 0-2.9.4-5.6 9.7zm6.5 2.8c0 .8-.4 1.5-1 1.5-.5 0-1-.7-1-1.5s.5-1.5 1-1.5c.6 0 1 .7 1 1.5zM81 308v11h2.5c2.3 0 2.5-.4 2.5-4 0-3.9.1-4 3.5-4 3.1 0 3.5-.3 3.5-2.5s-.4-2.5-3.5-2.5c-2.8 0-3.5-.4-3.5-2 0-1.7.7-2 4-2 3.6 0 4-.3 4-2.5 0-2.4-.2-2.5-6.5-2.5H81v11zM100 299.5c0 2 .5 2.5 2.5 2.5 2.5 0 2.5.1 2.5 8.5s0 8.5 2.5 8.5 2.5-.1 2.5-8.5 0-8.5 2.5-8.5c2 0 2.5-.5 2.5-2.5 0-2.4-.2-2.5-7.5-2.5s-7.5.1-7.5 2.5zM124.4 297.8c-2.2 1.4-3.4 5.1-3.4 10.2s1.2 8.8 3.4 10.2c2.3 1.6 8.6.8 10.6-1.2 1.6-1.6 2-3.3 2-9s-.4-7.4-2-9c-2-2-8.3-2.8-10.6-1.2zm6.4 5.4c1.7 1.7 1.5 8.3-.3 9.8-2.3 1.9-3.5.2-3.5-4.9 0-6 1.2-7.5 3.8-4.9zM145 308v11h2.5c2.3 0 2.5-.3 2.5-5.3v-5.2l3.1 5.2c2.4 4.1 3.6 5.3 5.5 5.3 2.4 0 2.4 0 2.4-11v-11h-2.4c-2.3 0-2.5.5-2.8 4.7l-.3 4.8-2.8-4.8c-2.1-3.6-3.4-4.7-5.2-4.7H145v11zM181.6 299.2c-1.1 1.5-1.6 4.5-1.6 9.4 0 8.4 1.4 10.4 7.7 10.4 5.1 0 7.3-2.3 7.3-7.8 0-4.1-.1-4.2-3.5-4.2-2.8 0-3.5.4-3.5 1.9 0 1.1.6 2.1 1.3 2.4.9.4.9.7 0 1.7-2 2.1-4.3-.6-4.3-5 0-4.3 2.3-7.1 4.2-5.2 2 2 5.8 1.5 5.8-.7 0-3.2-2.8-5.1-7.5-5.1-3.4 0-4.7.5-5.9 2.2zM204.5 306.7c-1.5 5.4-3 10.4-3.2 11.1-.4.8.5 1.2 2.6 1.2s3.1-.5 3.1-1.5 1-1.5 3-1.5 3 .5 3 1.5 1 1.5 3 1.5c3.5 0 3.5.2 1.1-7.5-1-3.3-2.4-7.9-3-10.3-1-3.7-1.5-4.2-4-4.2-2.7 0-2.9.4-5.6 9.7zm6.5 2.8c0 .8-.4 1.5-1 1.5-.5 0-1-.7-1-1.5s.5-1.5 1-1.5c.6 0 1 .7 1 1.5zM226 308v11h2.5c2.3 0 2.5-.4 2.5-4.8.1-3.7.3-4.3 1.1-3 1.4 2.5 3.4 2.2 4.7-.5.9-1.9 1.1-1.5 1.1 3 .1 5 .3 5.3 2.6 5.3h2.5v-22h-2.5c-1.8 0-2.9.9-4.2 3.5l-1.8 3.5-1.9-3.5c-1.4-2.5-2.6-3.5-4.3-3.5-2.3 0-2.3.1-2.3 11zM251 308v11h7c6.8 0 7-.1 7-2.5 0-2.3-.4-2.5-4-2.5-3.3 0-4-.3-4-2 0-1.6.7-2 3.5-2 3.1 0 3.5-.3 3.5-2.5s-.4-2.5-3.5-2.5c-2.4 0-3.5-.5-3.5-1.5s1.1-1.5 3.5-1.5c3.1 0 3.5-.3 3.5-2.5 0-2.4-.2-2.5-6.5-2.5H251v11zM283 306c0 10.6 1.4 13 7.8 13 6.6 0 8.2-2.7 8.2-13.9V297h-5.9l-.3 8.2c-.2 6.6-.6 8.3-1.8 8.3-1.2 0-1.6-1.7-1.8-8.3l-.3-8.2H283v9zM307 308v11h2.5c2.3 0 2.5-.3 2.5-5.3v-5.2l3.1 5.2c2.4 4.1 3.6 5.3 5.5 5.3 2.4 0 2.4 0 2.4-11v-11h-2.4c-2.3 0-2.5.5-2.8 4.7l-.3 4.8-2.8-4.8c-2.1-3.6-3.4-4.7-5.2-4.7H307v11zM331 308v11h6v-22h-6v11zM347.4 297.8c-2.2 1.4-3.4 5.1-3.4 10.2s1.2 8.8 3.4 10.2c2.3 1.6 8.6.8 10.6-1.2 1.6-1.6 2-3.3 2-9s-.4-7.4-2-9c-2-2-8.3-2.8-10.6-1.2zm6.4 5.4c1.7 1.7 1.5 8.3-.3 9.8-2.3 1.9-3.5.2-3.5-4.9 0-6 1.2-7.5 3.8-4.9zM368 308v11h2.5c2.3 0 2.5-.3 2.5-5.3v-5.2l3.1 5.2c2.4 4.1 3.6 5.3 5.5 5.3 2.4 0 2.4 0 2.4-11v-11h-2.4c-2.3 0-2.5.5-2.8 4.7l-.3 4.8-2.8-4.8c-2.1-3.6-3.4-4.7-5.2-4.7H368v11z"></path></g></svg>