<svg id="globe" xmlns="http://www.w3.org/2000/svg" viewBox="0 0 100 100"><path fill="#adadad" d="M92.3 76.9c-17.4 27.1-55.4 30.9-77.7 8.3-19.5-19.1-19.5-51.1 0-70.5C37.3-7.9 71.1-2.7 88.5 18.2c14.3 17 15 40.3 3.8 58.7zm3.1-24.7H78c0 6.3-.7 12.5-2.1 17.7 4.5 1 8.7 2.1 12.9 3.5 3.9-6.2 6.3-13.2 6.6-21.2zm-21.9 0H52.3v15.3c6.6 0 12.9.7 19.2 1.7 1-5.1 2-10.7 2-17zm-25.8 0H26.5c.3 6.3 1 11.8 2.1 17 6.3-1 12.5-1.7 19.2-1.7l-.1-15.3zm-25.8 0H4.5c.7 8 2.8 14.9 6.6 21.2C15.3 72 19.5 71 24 70c-1.4-5.2-2.1-11.5-2.1-17.8zM4.5 47.7h17.4c0-5.9.7-11.5 2.1-16.7-4.9-1-9.1-2.4-13.2-3.8-3.5 6.3-5.9 13.2-6.3 20.5zm22 0h21.2V33.5c-6.6 0-13.2-.7-19.2-1.7-1 4.8-2 10.4-2 15.9zm25.7 0h21.2c0-5.6-.7-11.1-2.1-16-5.9 1-12.5 1.7-19.2 1.7l.1 14.3zm25.8 0h17.4c-.3-7.3-2.8-14.2-6.3-20.5-4.2 1.4-8.4 2.8-13.2 3.8 1.4 5.3 2.1 10.8 2.1 16.7zM52.2 5v24c6.3-.3 12.5-.7 18.1-1.7C67.6 18.9 61.7 6.7 52.2 5zm0 67.1V95c9.4-1.7 15-13.2 17.8-21.2-5.6-1.1-11.5-1.4-17.8-1.7zM47.7 95V72.1c-6.3.3-12.2.7-17.8 1.7 2.8 8 8.8 19.4 17.8 21.2zm0-66V5c-9.4 1.7-15.3 13.9-18.1 22.2 5.9 1.1 11.9 1.4 18.1 1.8zM64.4 7.1c5.2 5.2 8.4 12.5 10.4 19.5 4.2-1 8-2.1 11.8-3.1-5.4-7.7-13.1-13.3-22.2-16.4zm10.1 67.4c-2.1 6.6-5.2 13.6-10.1 18.4 8.7-2.8 16.4-8.3 21.6-15.3-3.4-1.4-7.3-2.4-11.5-3.1zm-39 18.4c-4.9-4.9-8-11.8-10.1-18.4-4.2.7-8 1.7-11.5 3.1 5.6 7 12.9 12.5 21.6 15.3zM25.1 26.5c2.1-7 5.6-14.2 10.4-19.5-9.1 3.1-16.7 8.7-22.3 16.3 3.9 1.1 7.7 2.2 11.9 3.2z"></path></svg>